# xmcd CD database file
#
# Track frame offsets:
#	150
#	13922
#	42665
#	68737
#	100013
#	126830
#	177298
#
# Disc length: 2667 seconds
#
# Revision: 1
# Processed by: cddbd v1.5.1PL2 Copyright (c) Steve Scherf et al.
# Submitted via: freedbtool 1.11
#
DISCID=5c0a6907
DTITLE=Stevie Ray Vaughan - srv1987-07-23-d1
DYEAR=1900
DGENRE=Blues
TTITLE0=t01
TTITLE1=t02
TTITLE2=t03
TTITLE3=t04
TTITLE4=t05
TTITLE5=t06
TTITLE6=t07
EXTD=
EXTT0=
EXTT1=
EXTT2=
EXTT3=
EXTT4=
EXTT5=
EXTT6=
PLAYORDER=
